# xmcd
#
# Track frame offsets:
#	150
#	20478
#	37033
#	51533
#	70145
#	87785
#	103693
#	120355
#	137264
#	153046
#	171130
#	185634
#	201584
#	217392
#
# Disc length: 3114
#
# Revision: 2
# Processed by: cddbd v1.5.1PL0 Copyright (c) Steve Scherf et al.
# Submitted via: ExactAudioCopy v0.90b4
# Normalized: r0:DSETVAR1,TDELIM( - ),TSWAP
#
DISCID=c90c280e
DTITLE=Various Artist - Hitz Country 2004 vol. 1
DYEAR=2004
DGENRE=Country
TTITLE0=Alan Jackson - Remember When
TTITLE1=Toby Keith - American Soldier
TTITLE2=Martina McBride - In My Daughter's Eyes
TTITLE3=Kenny Chesney - There Goes My Life
TTITLE4=Gary Allan - Songs About Rain
TTITLE5=Carolyn Dawn Johnson - Simple Life
TTITLE6=Patty Loveless - On Your Way Home
TTITLE7=Sheryl Crow - The First Cut Is The Deepest
TTITLE8=Kenny Rogers - Handprints On The Wall
TTITLE9=Amanda Wilkinson - Gone From Love Too Long
TTITLE10=Billy Currington - I Got A Feeling
TTITLE11=Dierks Bentley - My Last Name
TTITLE12=Buddy Jewell - Sweet Southern Comfort
TTITLE13=Darryl Worley - I Will Hold My Ground
EXTD=
EXTT0=
EXTT1=
EXTT2=
EXTT3=
EXTT4=
EXTT5=
EXTT6=
EXTT7=
EXTT8=
EXTT9=
EXTT10=
EXTT11=
EXTT12=
EXTT13=
PLAYORDER=
